<svg xmlns="http://www.w3.org/2000/svg" width="410" height="404" viewBox="0 0 410 404" fill="none">
  <path d="M399.641 59.5246L215.643 388.545C211.844 395.338 202.084 395.378 198.228 388.618L10.5817 59.5563C6.38087 52.1896 12.6802 43.2665 21.0281 44.7586L205.223 77.6824C206.398 77.8924 207.601 77.8904 208.776 77.6763L389.119 44.8058C397.439 43.2894 403.768 52.1434 399.636 59.5399L399.641 59.5246Z" fill="url(#paint0_linear_1_40)"/>
  <path d="M292.965 1.5744L156.801 28.2552C154.563 28.6937 152.906 30.5903 152.771 32.8724L144.395 174.33C144.198 177.645 147.258 180.217 150.51 179.498L188.42 171.35C191.962 170.568 195.172 173.476 194.443 177.047L183.18 233.578C182.422 237.32 185.964 240.509 189.602 239.391L212.947 232.345C216.586 231.227 220.128 234.417 219.369 238.159L201.398 327.482C200.278 332.963 207.486 335.74 210.492 330.996L212.5 327.846L323.523 103.876C325.214 100.363 322.108 96.3249 318.254 97.0939L279.014 104.79C275.33 105.528 272.227 102.197 273.267 98.5876L306.454 -0.00152588C307.496 -3.61068 304.422 -7 300.683 -6.19969L292.965 1.5744Z" fill="url(#paint1_linear_1_40)"/>
  <defs>
    <linearGradient id="paint0_linear_1_40" x1="6.00017" y1="32.9999" x2="235" y2="344" gradientUnits="userSpaceOnUse">
      <stop stop-color="#41D1FF"/>
      <stop offset="1" stop-color="#BD34FE"/>
    </linearGradient>
    <linearGradient id="paint1_linear_1_40" x1="194.651" y1="8.81818" x2="236.076" y2="292.989" gradientUnits="userSpaceOnUse">
      <stop stop-color="#FFEA83"/>
      <stop offset="0.0833333" stop-color="#FFDD35"/>
      <stop offset="1" stop-color="#FFA800"/>
    </linearGradient>
  </defs>
</svg>
